<svg xmlns="http://www.w3.org/2000/svg" xmlns:xlink="http://www.w3.org/1999/xlink" width="368" height="121" viewBox="0 0 368 121"><defs><style>.a{fill:#fff;stroke:#006cff;stroke-linecap:round;stroke-linejoin:round;stroke-width:5px;}.b{fill:#006cff;font-size:100px;font-family:SFCompactRounded-Medium, SF Compact Rounded;font-weight:500;}.c{stroke:none;}.d{fill:none;}.e{filter:url(#a);}</style><filter id="a" x="0" y="4" width="368" height="117" filterUnits="userSpaceOnUse"><feOffset dy="3" input="SourceAlpha"/><feGaussianBlur stdDeviation="3" result="b"/><feFlood flood-opacity="0.161"/><feComposite operator="in" in2="b"/><feComposite in="SourceGraphic"/></filter></defs><g transform="translate(8.99)"><g class="e" transform="matrix(1, 0, 0, 1, -8.99, 0)"><g class="a" transform="translate(9 10)"><rect class="c" width="350" height="99"/><rect class="d" x="2.5" y="2.5" width="345" height="94"/></g></g><text class="b" transform="translate(102.98 95)"><tspan x="0" y="0">STOP</tspan></text><path d="M62.5,2.25H7.5A7.5,7.5,0,0,0,0,9.75v55a7.5,7.5,0,0,0,7.5,7.5h55a7.5,7.5,0,0,0,7.5-7.5v-55A7.5,7.5,0,0,0,62.5,2.25Z" transform="translate(16 22.25)"/></g></svg>