<svg xmlns="http://www.w3.org/2000/svg" xmlns:xlink="http://www.w3.org/1999/xlink" width="1920" height="1080" viewBox="0 0 1920 1080"><defs><style>.a{clip-path:url(#b);}.b{fill:#fff;stroke:#707070;}.c{font-size:100px;font-family:SFCompactRounded-Medium, SF Compact Rounded;font-weight:500;}.d{fill:red;}.e,.g{fill:#2d9f9f;}.f{fill:#006cff;font-size:103px;font-family:SFCompactRounded-Heavy, SF Compact Rounded;font-weight:800;}.f,.g{stroke:#000;stroke-linecap:round;stroke-linejoin:round;stroke-width:2px;}.h{stroke:none;}.i{fill:none;}.j{fill:#141414;}</style><clipPath id="b"><rect width="1920" height="1080"/></clipPath></defs><g id="a" class="a"><rect class="j" width="1920" height="1080"/><g transform="translate(599.18 480.5)"><g class="b" transform="translate(0.18 10)"><rect class="h" width="310" height="99"/><rect class="i" x="0.5" y="0.5" width="309" height="98"/></g><text class="c" transform="translate(104 95)"><tspan x="0" y="0">REC</tspan></text><path class="d" d="M35,0A35,35,0,1,0,70,35,34.953,34.953,0,0,0,35,0Z" transform="translate(23 24.5)"/></g><g transform="translate(785.181 288.5)"><g class="b" transform="translate(0.181 10)"><rect class="h" width="350" height="99"/><rect class="i" x="0.5" y="0.5" width="349" height="98"/></g><text class="c" transform="translate(107 95)"><tspan x="0" y="0">PLAY</tspan></text><path class="e" d="M38,3A35,35,0,1,0,73,38,35.013,35.013,0,0,0,38,3ZM31,53.75V22.25L52,38Z" transform="translate(20 21)"/></g><g transform="translate(1010.01 480.5)"><g class="b" transform="translate(0.01 10)"><rect class="h" width="350" height="99"/><rect class="i" x="0.5" y="0.5" width="349" height="98"/></g><text class="c" transform="translate(102.98 95)"><tspan x="0" y="0">STOP</tspan></text><path d="M62.5,2.25H7.5A7.5,7.5,0,0,0,0,9.75v55a7.5,7.5,0,0,0,7.5,7.5h55a7.5,7.5,0,0,0,7.5-7.5v-55A7.5,7.5,0,0,0,62.5,2.25Z" transform="translate(16 22.25)"/></g><g transform="translate(660.412 49.121)"><text class="f" transform="translate(144.636 104.187)"><tspan x="0" y="0">SlapBack</tspan></text><path class="g" d="M33.679,114.151H47.306V32.394H33.679ZM60.932,141.4H74.558V5.141H60.932V141.4ZM6.427,86.9H20.053V59.646H6.427Zm81.757,27.253H101.81V32.394H88.184Zm27.253-54.5V86.9h13.626V59.646Z" transform="translate(-6.427 -5.141)"/></g></g></svg>